<?xml version="1.0" standalone="no"?>
<!DOCTYPE svg PUBLIC "-//W3C//DTD SVG 20010904//EN"
 "http://www.w3.org/TR/2001/REC-SVG-20010904/DTD/svg10.dtd">
<svg version="1.0" xmlns="http://www.w3.org/2000/svg"
 width="1024.000000pt" height="310.000000pt" viewBox="0 0 1024.000000 310.000000"
 preserveAspectRatio="xMidYMid meet">

<g transform="translate(0.000000,310.000000) scale(0.100000,-0.100000)"
fill="#000000" stroke="none">
<path d="M102 2998 c-17 -17 -17 -2879 0 -2896 17 -17 10019 -17 10036 0 17
17 17 2879 0 2896 -17 17 -10019 17 -10036 0z m251 -365 c-25 -3 -33 -9 -33
-24 0 -14 8 -19 33 -21 l32 -1 -32 -4 c-27 -4 -33 -9 -33 -28 0 -20 6 -24 38
-28 l37 -4 -42 -1 -43 -2 0 60 0 60 38 -2 c36 -1 36 -1 5 -5z m117 -52 c0 -57
-1 -58 -27 -57 -20 1 -30 8 -37 28 -11 32 8 62 36 55 13 -4 18 0 18 14 0 10 2
19 5 19 3 0 5 -26 5 -59z m772 -1 c-14 -32 -28 -57 -30 -55 -2 2 6 25 17 50
12 26 21 49 21 51 0 1 -15 5 -32 7 -29 3 -28 4 9 5 l41 2 -26 -60z m136 -53
c25 -4 24 -4 -5 -6 l-33 -1 2 63 2 62 3 -57 c4 -53 6 -57 31 -61z m374 96 c39
-35 11 -103 -44 -103 -28 0 -28 1 -28 60 0 58 1 60 27 60 14 0 35 -7 45 -17z
m-143 -21 c-12 -5 -11 -69 1 -75 6 -3 5 -4 -2 -3 -7 1 -15 21 -18 43 -8 51 -3
66 15 50 7 -7 9 -13 4 -15z m-1102 -59 c-2 -16 -4 -5 -4 22 0 28 2 40 4 28 2
-13 2 -35 0 -50z m46 60 c-7 -2 -19 -2 -25 0 -7 3 -2 5 12 5 14 0 19 -2 13 -5z
m71 1 c22 -8 22 -70 0 -78 -24 -9 -31 -7 -11 5 9 5 17 21 17 34 0 13 -8 29
-17 34 -20 12 -13 14 11 5z m64 -14 c-7 -11 -15 -15 -17 -9 -2 6 3 15 10 20
20 12 21 11 7 -11z m76 11 c4 -5 -3 -7 -14 -4 -13 4 -20 0 -20 -10 0 -8 12
-18 26 -21 27 -7 28 -23 1 -40 -12 -8 -20 -7 -28 1 -9 9 -7 11 8 7 31 -8 38
14 9 26 -25 9 -34 29 -19 43 9 10 31 9 37 -2z m134 -3 c30 -30 -2 -93 -36 -71
-21 13 -27 50 -12 69 15 17 32 18 48 2z m39 -10 c-3 -8 -6 -5 -6 6 -1 11 2 17
5 13 3 -3 4 -12 1 -19z m38 -34 c-8 -20 -18 -35 -20 -32 -3 3 1 18 10 34 8 16
15 36 16 44 0 9 3 10 5 3 3 -6 -2 -28 -11 -49z m93 44 c22 -22 13 -38 -19 -38
-20 0 -29 -4 -26 -12 2 -7 14 -13 26 -12 15 0 19 -2 11 -10 -15 -15 -44 5 -48
33 -6 40 30 65 56 39z m39 -55 c-2 -16 -4 -5 -4 22 0 28 2 40 4 28 2 -13 2
-35 0 -50z m374 20 c3 -27 1 -39 -6 -37 -6 3 -9 20 -7 41 4 35 4 36 -24 29
-22 -5 -25 -4 -14 4 28 19 45 6 51 -37z m73 38 c4 -5 -3 -7 -14 -4 -13 4 -20
0 -20 -10 0 -8 12 -18 26 -21 27 -7 28 -23 1 -40 -12 -8 -20 -7 -28 1 -9 9 -7
11 8 7 31 -8 38 14 9 26 -25 9 -34 29 -19 43 9 10 31 9 37 -2z m294 -3 c7 -7
12 -28 12 -47 0 -43 -14 -32 -15 12 -1 26 -5 32 -23 31 -11 0 -19 3 -16 8 7
12 28 10 42 -4z m64 -49 c12 -8 -9 -59 -24 -59 -10 0 -9 3 1 9 9 6 12 18 8 37
-17 79 -17 80 -6 49 7 -16 16 -33 21 -36z m18 24 c-11 -17 -11 -17 -6 0 3 10
6 24 7 30 0 9 2 9 5 0 3 -7 0 -20 -6 -30z m75 27 c3 -6 -1 -7 -9 -4 -18 7 -21
14 -7 14 6 0 13 -4 16 -10z m-1419 -35 c0 -25 -3 -31 -9 -20 -7 13 -2 55 7 55
1 0 2 -16 2 -35z m1410 5 c14 -6 24 -17 23 -27 -1 -16 -2 -16 -6 -1 -2 9 -15
19 -29 22 -14 4 -24 13 -23 24 0 11 2 13 6 4 3 -7 16 -17 29 -22z m-548 -7
c-21 -5 -24 -29 -5 -36 9 -4 9 -6 0 -6 -6 -1 -15 4 -18 9 -11 17 3 40 22 39
17 -1 17 -2 1 -6z m368 -5 c-19 -11 -19 -11 -1 -24 17 -13 17 -14 2 -14 -23 0
-34 29 -16 41 8 5 19 9 24 9 6 -1 1 -6 -9 -12z m174 -31 c11 -5 9 -6 -4 -4
-11 1 -21 9 -23 17 -3 10 -2 11 4 4 4 -6 15 -14 23 -17z m-1435 3 c3 -5 1 -10
-4 -10 -6 0 -11 5 -11 10 0 6 2 10 4 10 3 0 8 -4 11 -10z m4611 -1100 c7 -611
-9 -1022 -38 -974 -16 26 -40 555 -26 570 3 2 7 -59 10 -136 5 -146 20 -196
35 -124 10 47 11 842 1 1114 -5 134 -4 176 3 135 5 -33 12 -296 15 -585z"/>
<path d="M416 2582 c-9 -27 3 -54 23 -50 22 5 22 62 -1 66 -9 2 -19 -5 -22
-16z"/>
<path d="M1690 2580 c0 -50 1 -51 26 -48 36 4 51 29 38 65 -7 20 -17 29 -37
31 -26 3 -27 2 -27 -48z"/>
<path d="M854 2586 c-10 -26 0 -51 21 -51 16 0 20 7 20 30 0 33 -30 49 -41 21z"/>
<path d="M1027 2594 c-14 -14 -6 -24 19 -24 16 0 24 5 22 13 -5 14 -31 21 -41
11z"/>
</g>
</svg>
